<?xml version="1.0" encoding="UTF-8"?>
<svg version="1.1" xmlns="http://www.w3.org/2000/svg" width="732" height="268">
<path d="M0 0 C241.56 0 483.12 0 732 0 C732 88.44 732 176.88 732 268 C490.44 268 248.88 268 0 268 C0 179.56 0 91.12 0 0 Z " fill="#6B95CE" transform="translate(0,0)"/>
<path d="M0 0 C11.18178331 0.0023425 22.36356518 0.00258642 33.54534867 0.00148464 C34.75200391 0.00137006 34.75200391 0.00137006 35.98303602 0.00125317 C39.25130293 0.00094166 42.51956984 0.00062324 45.78783675 0.00029341 C76.22973872 -0.00274182 106.6716377 -0.00003028 137.11353921 0.0053903 C163.95857414 0.01013415 190.80360433 0.00970772 217.64863922 0.00492931 C248.05018274 -0.00046452 278.45172364 -0.00252716 308.85326757 0.00054158 C312.11377694 0.00086213 315.37428632 0.00117498 318.63479569 0.00148464 C319.43718391 0.00156372 320.23957213 0.00164279 321.06627514 0.00172427 C332.22261757 0.00277222 343.37895827 0.00188034 354.53530047 -0.00050116 C373.18945634 -0.00442905 391.84360619 -0.00380212 410.49776032 0.00590587 C411.19456284 0.00625979 411.89136536 0.00661371 412.60928312 0.00697835 C467.75169486 0.03607469 467.75169486 0.03607469 495.05409577 0.36680675 C495.86572321 0.37663577 496.67735065 0.38646478 497.51357286 0.39659164 C511.82915642 0.57574077 526.14189875 0.86619636 540.45625641 1.13530041 C540.45625641 31.82530041 540.45625641 62.51530041 540.45625641 94.13530041 C298.89625641 94.13530041 57.33625641 94.13530041 -191.54374359 94.13530041 C-191.54374359 2.13530041 -191.54374359 2.13530041 -190.54374359 1.13530041 C-189.04460396 1.01216636 -187.53970996 0.95870647 -186.03575752 0.93208576 C-185.04034265 0.91256894 -184.04492779 0.89305212 -183.01934884 0.87294389 C-181.89702221 0.85664831 -180.77469559 0.84035273 -179.61835907 0.82356334 C-178.41378044 0.80309971 -177.2092018 0.78263608 -175.96812079 0.76155234 C-172.51055502 0.70608837 -169.05301379 0.65642226 -165.59530968 0.61082635 C-163.31248883 0.58069771 -161.02969006 0.54915725 -158.74688885 0.51757909 C-105.83637622 -0.19840379 -52.91436105 -0.01130289 0 0 Z " fill="#829EC6" transform="translate(191.54374358803034,173.8646995946765)"/>
<path d="M0 0 C1.14868561 -0.00349457 2.29737122 -0.00698914 3.48086548 -0.0105896 C18.2312599 -0.03547489 32.72701011 0.56519926 47.375 2.3125 C48.52228577 2.44608414 48.52228577 2.44608414 49.69274902 2.58236694 C54.86504402 3.18977783 60.02742461 3.85927705 65.1875 4.5625 C66.36147842 4.7215683 66.36147842 4.7215683 67.55917358 4.8838501 C92.55461112 8.2965032 117.14660646 13.36940256 141.76531982 18.85063171 C151.02061701 20.90686918 160.29172712 22.88993363 169.5625 24.875 C170.45588074 25.06640564 171.34926147 25.25781128 172.26971436 25.45501709 C187.01798461 28.61304114 201.77465114 31.72971193 216.5546875 34.73608398 C218.35300152 35.10362375 220.15004483 35.47747677 221.9453125 35.85961914 C228.38627191 37.20851451 234.84433499 38.08276914 241.375 38.875 C243.41707668 39.12294829 245.45876945 39.37408597 247.5 39.62890625 C248.38945313 39.73662354 249.27890625 39.84434082 250.1953125 39.95532227 C252.375 40.3125 252.375 40.3125 254.375 41.3125 C254.375 47.9125 254.375 54.5125 254.375 61.3125 C12.815 61.3125 -228.745 61.3125 -477.625 61.3125 C-477.625 44.1525 -477.625 26.9925 -477.625 9.3125 C-472.345 10.6325 -467.065 11.9525 -461.625 13.3125 C-456.62800607 14.47586265 -451.63082079 15.62648782 -446.625 16.75 C-445.63302109 16.97302795 -445.63302109 16.97302795 -444.6210022 17.20056152 C-390.77853651 29.29521742 -336.8643853 36.44097076 -281.59472656 35.34960938 C-279.77159299 35.31526179 -277.94829358 35.29004411 -276.125 35.265625 C-258.52980574 35.00938431 -241.09109958 33.2321479 -223.609375 31.34765625 C-222.82695435 31.26344421 -222.04453369 31.17923218 -221.23840332 31.09246826 C-216.75609176 30.59473628 -212.33106353 29.94221085 -207.8828125 29.19140625 C-197.90439826 27.71593951 -187.8100798 28.10129398 -177.75 28.1875 C-175.6940148 28.19755451 -173.63802481 28.20667597 -171.58203125 28.21484375 C-166.59623383 28.23665075 -161.61067116 28.2710431 -156.625 28.3125 C-156.295 25.6725 -155.965 23.0325 -155.625 20.3125 C-148.035 18.9925 -140.445 17.6725 -132.625 16.3125 C-132.295 20.9325 -131.965 25.5525 -131.625 30.3125 C-114.135 30.3125 -96.645 30.3125 -78.625 30.3125 C-78.295 22.3925 -77.965 14.4725 -77.625 6.3125 C-71.29690565 5.21423569 -64.98273054 4.20900017 -58.625 3.3125 C-57.61115234 3.16844727 -56.59730469 3.02439453 -55.55273438 2.87597656 C-37.04763049 0.38033411 -18.65167697 0.01826836 0 0 Z " fill="#3670BD" transform="translate(477.625,206.6875)"/>
<path d="M0 0 C1.14868561 -0.00349457 2.29737122 -0.00698914 3.48086548 -0.0105896 C18.2312599 -0.03547489 32.72701011 0.56519926 47.375 2.3125 C48.13985718 2.40155609 48.90471436 2.49061218 49.69274902 2.58236694 C54.86504402 3.18977783 60.02742461 3.85927705 65.1875 4.5625 C65.97015228 4.66854553 66.75280457 4.77459106 67.55917358 4.8838501 C92.55461112 8.2965032 117.14660646 13.36940256 141.76531982 18.85063171 C151.02061701 20.90686918 160.29172712 22.88993363 169.5625 24.875 C170.45588074 25.06640564 171.34926147 25.25781128 172.26971436 25.45501709 C187.01798461 28.61304114 201.77465114 31.72971193 216.5546875 34.73608398 C218.35300152 35.10362375 220.15004483 35.47747677 221.9453125 35.85961914 C228.38627191 37.20851451 234.84433499 38.08276914 241.375 38.875 C243.41707668 39.12294829 245.45876945 39.37408597 247.5 39.62890625 C248.38945313 39.73662354 249.27890625 39.84434082 250.1953125 39.95532227 C252.375 40.3125 252.375 40.3125 254.375 41.3125 C254.375 47.5825 254.375 53.8525 254.375 60.3125 C245.51637967 60.65820226 237.12914148 59.32787543 228.4375 57.8125 C226.85633199 57.54251631 225.27511316 57.27283006 223.69384766 57.00341797 C200.7657197 53.06987989 177.89707757 48.7665968 155.06640625 44.3046875 C127.93118176 39.01410489 100.70962437 34.45112283 73.375 30.3125 C72.18269775 30.13140686 72.18269775 30.13140686 70.96630859 29.94665527 C21.4189198 22.45070559 -27.81590343 23.40245069 -77.625 27.3125 C-77.625 20.3825 -77.625 13.4525 -77.625 6.3125 C-71.29690565 5.21423569 -64.98273054 4.20900017 -58.625 3.3125 C-57.61115234 3.16844727 -56.59730469 3.02439453 -55.55273438 2.87597656 C-37.04763049 0.38033411 -18.65167697 0.01826836 0 0 Z " fill="#356DBA" transform="translate(477.625,206.6875)"/>
<path d="M0 0 C2.000625 0.515625 4.00125 1.03125 6.0625 1.5625 C68.49389471 17.31844365 131.51331998 27.31106896 196.03027344 26.03710938 C197.85340701 26.00276179 199.67670642 25.97754411 201.5 25.953125 C219.09519426 25.69688431 236.53390042 23.9196479 254.015625 22.03515625 C254.79804565 21.95094421 255.58046631 21.86673218 256.38659668 21.77996826 C260.86890824 21.28223628 265.29393647 20.62971085 269.7421875 19.87890625 C279.72060174 18.40343951 289.8149202 18.78879398 299.875 18.875 C301.9309852 18.88505451 303.98697519 18.89417597 306.04296875 18.90234375 C311.02876617 18.92415075 316.01432884 18.9585431 321 19 C321.33 16.36 321.66 13.72 322 11 C329.59 9.68 337.18 8.36 345 7 C345.33 11.62 345.66 16.24 346 21 C352.6 21.33 359.2 21.66 366 22 C366 22.33 366 22.66 366 23 C346.34830055 26.06069675 326.69157699 29.08704578 307.02941322 32.0797596 C302.87040521 32.71328396 298.71239554 33.35289957 294.55517578 33.99804688 C228.60336125 44.20484189 160.4469892 47.11134469 93.95977783 40.19921875 C90.90133062 39.88831615 87.83911703 39.61965448 84.77734375 39.34375 C67.07542023 37.65547905 49.60428163 34.55255735 32.11914062 31.38397217 C30.03281968 31.00594668 27.94613914 30.62996492 25.859375 30.25439453 C19.89295979 29.17887777 13.92871513 28.09118952 7.96875 26.98046875 C7.07607422 26.81442139 6.18339844 26.64837402 5.26367188 26.47729492 C3 26 3 26 0 25 C0 16.75 0 8.5 0 0 Z " fill="#2563B7" transform="translate(0,216)"/>
<path d="M0 0 C18.15 0 36.3 0 55 0 C55.020625 6.084375 55.04125 12.16875 55.0625 18.4375 C55.071604 20.36005615 55.08070801 22.2826123 55.09008789 24.26342773 C55.09300707 25.77848236 55.09555562 27.29353777 55.09765625 28.80859375 C55.10277222 29.60237427 55.10788818 30.39615479 55.11315918 31.21398926 C55.11346956 33.14302829 55.06235893 35.07196912 55 37 C53.33283316 38.66716684 51.3269386 38.12744882 49.03710938 38.12939453 C47.97931274 38.13254669 46.92151611 38.13569885 45.83166504 38.13894653 C44.68065308 38.1369223 43.52964111 38.13489807 42.34375 38.1328125 C40.58484436 38.13424759 40.58484436 38.13424759 38.79040527 38.13571167 C36.30541938 38.1363937 33.82043171 38.13453784 31.33544922 38.13037109 C27.51656113 38.12502319 23.69779065 38.13031536 19.87890625 38.13671875 C17.47135391 38.13605797 15.06380163 38.13477682 12.65625 38.1328125 C10.92973206 38.13584885 10.92973206 38.13584885 9.16833496 38.13894653 C8.11053833 38.13579437 7.0527417 38.13264221 5.96289062 38.12939453 C4.55843689 38.12820114 4.55843689 38.12820114 3.12561035 38.12698364 C1 38 1 38 0 37 C-0.08857875 34.26129758 -0.11530707 31.54725017 -0.09765625 28.80859375 C-0.09614563 27.7190741 -0.09614563 27.7190741 -0.09460449 26.60754395 C-0.08935716 23.88417999 -0.075396 21.16083847 -0.0625 18.4375 C-0.041875 12.353125 -0.02125 6.26875 0 0 Z " fill="#DEE7F4" transform="translate(345,200)"/>
<path d="M0 0 C16.83 0 33.66 0 51 0 C51.020625 5.424375 51.04125 10.84875 51.0625 16.4375 C51.071604 18.15122803 51.08070801 19.86495605 51.09008789 21.63061523 C51.09300716 22.98160727 51.09555569 24.33260019 51.09765625 25.68359375 C51.10277222 26.39100708 51.10788818 27.09842041 51.11315918 27.82727051 C51.11347032 29.55192617 51.06225761 31.27646838 51 33 C49.3859075 34.6140925 47.63523592 34.12734318 45.40429688 34.12939453 C43.93772644 34.13412277 43.93772644 34.13412277 42.44152832 34.13894653 C41.37801147 34.1369223 40.31449463 34.13489807 39.21875 34.1328125 C37.59302063 34.13424759 37.59302063 34.13424759 35.93444824 34.13571167 C33.6377761 34.13639365 31.34110205 34.13453811 29.04443359 34.13037109 C25.51525572 34.12502312 21.98620513 34.1303155 18.45703125 34.13671875 C16.23177055 34.13605797 14.00650993 34.13477682 11.78125 34.1328125 C10.71773315 34.13483673 9.65421631 34.13686096 8.55847168 34.13894653 C7.58075806 34.13579437 6.60304443 34.13264221 5.59570312 34.12939453 C4.73046021 34.12859894 3.86521729 34.12780334 2.97375488 34.12698364 C1 34 1 34 0 33 C-0.0884283 30.55196233 -0.11535972 28.13155206 -0.09765625 25.68359375 C-0.09664917 25.03588013 -0.09564209 24.3881665 -0.09460449 23.7208252 C-0.08935843 21.29303221 -0.07539725 18.86526439 -0.0625 16.4375 C-0.041875 11.013125 -0.02125 5.58875 0 0 Z " fill="#EDF1F6" transform="translate(271,200)"/>
<path d="M0 0 C23.36854855 4.11313104 46.61810242 7.84794087 70.36021423 8.8196106 C74.52492085 8.99702673 78.51702092 9.3718396 82.62290955 10.16043091 C79.59909646 11.89167129 77.31565676 12.44357191 73.8455658 12.57449341 C72.39319519 12.63298462 72.39319519 12.63298462 70.91148376 12.69265747 C69.31457703 12.73858032 69.31457703 12.73858032 67.68540955 12.78543091 C66.54861755 12.82120239 65.41182556 12.85697388 64.24058533 12.89382935 C60.36831358 13.00206535 56.49592973 13.08553984 52.62290955 13.16043091 C51.93553711 13.17481201 51.24816467 13.18919312 50.53996277 13.20401001 C5.73124084 14.1209248 -39.49717469 10.5293859 -83.37709045 1.16043091 C-85.20244573 0.78072788 -87.02797232 0.40184769 -88.85365295 0.02371216 C-93.36496703 -0.91477437 -97.87201073 -1.87162053 -102.37709045 -2.83956909 C-102.04709045 -3.49956909 -101.71709045 -4.15956909 -101.37709045 -4.83956909 C-69.04612431 -14.19518331 -32.2430651 -5.68398717 0 0 Z " fill="#AAC2E2" transform="translate(145.37709045410156,229.83956909179688)"/>
<path d="M0 0 C1.30555344 -0.01038551 1.30555344 -0.01038551 2.63748169 -0.02098083 C5.43545089 -0.03817426 8.23323043 -0.04456981 11.03125 -0.046875 C11.98811707 -0.04821442 12.94498413 -0.04955383 13.93084717 -0.05093384 C29.34061449 -0.0462606 44.2929714 0.76034751 59.53125 3.203125 C61.0311674 3.42244065 62.53116199 3.64122935 64.03125 3.859375 C76.37780685 5.76326317 88.45462652 9.06006136 100.53125 12.203125 C100.53125 12.533125 100.53125 12.863125 100.53125 13.203125 C41.79125 13.203125 -16.94875 13.203125 -77.46875 13.203125 C-74.42199744 11.17195662 -72.52848661 10.60728914 -69 9.8359375 C-67.88415527 9.59190186 -66.76831055 9.34786621 -65.61865234 9.09643555 C-64.41418457 8.84289307 -63.2097168 8.58935059 -61.96875 8.328125 C-60.72947754 8.06491455 -59.49020508 7.8017041 -58.21337891 7.53051758 C-39.12266197 3.57551193 -19.54097841 0.1062686 0 0 Z " fill="#8EAED9" transform="translate(475.46875,179.796875)"/>
<path d="M0 0 C15.18 0 30.36 0 46 0 C46.020625 4.764375 46.04125 9.52875 46.0625 14.4375 C46.071604 15.9423999 46.08070801 17.4472998 46.09008789 18.99780273 C46.09258545 20.17286377 46.09508301 21.3479248 46.09765625 22.55859375 C46.10289307 23.76829834 46.10812988 24.97800293 46.11352539 26.22436523 C46 29 46 29 45 30 C43.62390118 30.09795311 42.24286118 30.12798088 40.86328125 30.12939453 C39.54686646 30.13412277 39.54686646 30.13412277 38.20385742 30.13894653 C37.24970947 30.1369223 36.29556152 30.13489807 35.3125 30.1328125 C33.85324097 30.13424759 33.85324097 30.13424759 32.36450195 30.13571167 C30.303222 30.13639358 28.24193992 30.13453853 26.18066406 30.13037109 C23.01362312 30.125023 19.846724 30.13031572 16.6796875 30.13671875 C14.68229135 30.13605797 12.68489529 30.13477681 10.6875 30.1328125 C9.73335205 30.13483673 8.7792041 30.13686096 7.79614258 30.13894653 C6.91853271 30.13579437 6.04092285 30.13264221 5.13671875 30.12939453 C4.36030029 30.12859894 3.58388184 30.12780334 2.78393555 30.12698364 C1 30 1 30 0 29 C-0.08775605 26.85441173 -0.10695219 24.70595579 -0.09765625 22.55859375 C-0.09515869 21.38353271 -0.09266113 20.20847168 -0.09008789 18.99780273 C-0.08098389 17.49290283 -0.07187988 15.98800293 -0.0625 14.4375 C-0.041875 9.673125 -0.02125 4.90875 0 0 Z " fill="#EFF2F7" transform="translate(207,200)"/>
<path d="M0 0 C7.04454546 0.74578734 13.95211927 2.07522735 20.90594482 3.41122437 C42.59620467 7.56764435 64.26396389 11.44845588 86.25683594 13.62792969 C88.80283373 13.88100173 91.34775527 14.14509084 93.89160156 14.41894531 C169.27513146 22.45595527 246.11803534 16.30797782 320.6640625 4.14453125 C321.53609314 4.00274948 322.40812378 3.86096771 323.30657959 3.71488953 C327.18378377 3.07991679 331.055587 2.42569255 334.921875 1.72729492 C345.34823842 -0.0951573 355.43998931 -0.25921204 366 0 C366 0.33 366 0.66 366 1 C346.34830055 4.06069675 326.69157699 7.08704578 307.02941322 10.0797596 C302.87040521 10.71328396 298.71239554 11.35289957 294.55517578 11.99804688 C228.60336125 22.20484189 160.4469892 25.11134469 93.95977783 18.19921875 C90.90133062 17.88831615 87.83911703 17.61965448 84.77734375 17.34375 C67.07542023 15.65547905 49.60428163 12.55255735 32.11914062 9.38397217 C30.03281968 9.00594668 27.94613914 8.62996492 25.859375 8.25439453 C19.89295979 7.17887777 13.92871513 6.09118952 7.96875 4.98046875 C7.07607422 4.81442139 6.18339844 4.64837402 5.26367188 4.47729492 C3 4 3 4 0 3 C0 2.01 0 1.02 0 0 Z " fill="#C1414D" transform="translate(0,238)"/>
<path d="M0 0 C2.49975675 0.29503708 4.99976338 0.58796377 7.5 0.87890625 C43.27454235 5.15250264 78.67911823 11.98120305 114.00390625 18.9765625 C117.41907756 19.65202368 120.83443252 20.32654494 124.25 21 C125.09461792 21.16654083 125.93923584 21.33308167 126.80944824 21.50466919 C145.69115674 25.21651766 164.64765293 28.45663251 183.63006592 31.60650635 C186.99703493 32.16554339 190.36355891 32.7272414 193.7301178 33.28874207 C197.15333185 33.85964206 200.57666466 34.42982781 204 35 C204 35.66 204 36.32 204 37 C195.17295562 37.47677959 186.71958682 36.00935087 178.0625 34.5 C176.48133199 34.23001631 174.90011316 33.96033006 173.31884766 33.69091797 C150.3907197 29.75737989 127.52207757 25.4540968 104.69140625 20.9921875 C77.55618176 15.70160489 50.33462437 11.13862283 23 7 C22.20513184 6.87927124 21.41026367 6.75854248 20.59130859 6.63415527 C-28.94546001 -0.86018769 -78.20047364 0.0628806 -128 4 C-128 3.01 -128 2.02 -128 1 C-118.79050342 -0.57468577 -109.63763083 -1.58338569 -100.3125 -2.125 C-99.61023285 -2.16636078 -98.9079657 -2.20772156 -98.18441772 -2.25033569 C-65.45594695 -4.1065045 -32.53658555 -4.1969687 0 0 Z " fill="#C5444F" transform="translate(528,230)"/>
<path d="M0 0 C18.15 0 36.3 0 55 0 C55 4.29 55 8.58 55 13 C45.43514183 16.05261431 36.96343161 16.09580889 27 15 C27 15.99 27 16.98 27 18 C25.68 18.33 24.36 18.66 23 19 C23 17.68 23 16.36 23 15 C19.04 15 15.08 15 11 15 C11 16.98 11 18.96 11 21 C7.12315913 22.19287411 4.08378077 23 0 23 C0 15.41 0 7.82 0 0 Z " fill="#F0F3F7" transform="translate(345,200)"/>
<path d="M0 0 C0.72158295 0.03911499 1.44316589 0.07822998 2.18661499 0.11853027 C12.03768475 0.66822079 21.73725192 1.68670649 31.5 3.125 C31.17 3.785 30.84 4.445 30.5 5.125 C-19.33 5.125 -69.16 5.125 -120.5 5.125 C-120.5 4.795 -120.5 4.465 -120.5 4.125 C-80.35966474 0.09400236 -40.33160692 -2.23049804 0 0 Z " fill="#88A9D7" transform="translate(183.5,187.875)"/>
<path d="M0 0 C10.88760442 5.28626452 21.45756665 11.05942248 32 17 C32 17.33 32 17.66 32 18 C11.21 18 -9.58 18 -31 18 C-27.82094073 15.61570555 -24.93884248 13.79105097 -21.46484375 11.93359375 C-20.40845703 11.36576172 -19.35207031 10.79792969 -18.26367188 10.21289062 C-17.16603516 9.62701172 -16.06839844 9.04113281 -14.9375 8.4375 C-12.75842369 7.27082076 -10.58000754 6.10290742 -8.40234375 4.93359375 C-7.43804443 4.41853271 -6.47374512 3.90347168 -5.48022461 3.37280273 C-2.86735484 1.9710689 -2.86735484 1.9710689 0 0 Z " fill="#2663B4" transform="translate(372,182)"/>
<path d="M0 0 C0 7.26 0 14.52 0 22 C-4.22584739 23.4086158 -7.74876883 24.4236708 -12.0625 25.125 C-13.06410156 25.29257813 -14.06570313 25.46015625 -15.09765625 25.6328125 C-18 26 -18 26 -23 26 C-23 17.75 -23 9.5 -23 1 C-15.22920623 0.33865585 -7.83595001 0 0 0 Z " fill="#8DA6C8" transform="translate(345,201)"/>
<path d="M0 0 C2.82987135 0.83956545 4.84368265 1.95529912 7.30517578 3.57739258 C8.16884766 4.14264648 9.03251953 4.70790039 9.92236328 5.2902832 C10.81181641 5.88389648 11.70126953 6.47750977 12.61767578 7.08911133 C13.50712891 7.67112305 14.39658203 8.25313477 15.31298828 8.8527832 C19.60307508 11.67975831 23.59094066 14.55522323 27.61767578 17.77661133 C9.13767578 17.77661133 -9.34232422 17.77661133 -28.38232422 17.77661133 C-25.61235712 15.00664423 -23.86239269 13.26512129 -20.70263672 11.33911133 C-19.67976563 10.70875977 -19.67976563 10.70875977 -18.63623047 10.06567383 C-17.93369141 9.6402832 -17.23115234 9.21489258 -16.50732422 8.77661133 C-15.11357412 7.92329494 -13.72033697 7.06914011 -12.32763672 6.21411133 C-11.65635742 5.80805664 -10.98507812 5.40200195 -10.29345703 4.98364258 C-8.53553734 3.87337751 -6.85572208 2.64192416 -5.18701172 1.40161133 C-2.38232422 -0.22338867 -2.38232422 -0.22338867 0 0 Z " fill="#2562B4" transform="translate(297.38232421875,182.223388671875)"/>
<path d="M0 0 C0 5.61 0 11.22 0 17 C-13.52467455 16.02231268 -26.57366365 13.78295249 -39.8125 10.875 C-41.08931641 10.59785156 -42.36613281 10.32070312 -43.68164062 10.03515625 C-46.78853641 9.36025005 -49.89461521 8.68181845 -53 8 C-49.82074482 6.17130778 -47.15510416 5.61786014 -43.51953125 5.25390625 C-42.44541992 5.14022705 -41.37130859 5.02654785 -40.26464844 4.90942383 C-39.12543945 4.79493896 -37.98623047 4.6804541 -36.8125 4.5625 C-27.57865699 3.5773607 -18.50000833 2.34868586 -9.390625 0.55078125 C-6 0 -6 0 0 0 Z " fill="#B2C7E4" transform="translate(732,231)"/>
<path d="M0 0 C3.67894131 1.05410378 6.3966235 2.85006604 9.390625 5.1875 C10.18210938 5.80367187 10.97359375 6.41984375 11.7890625 7.0546875 C13.00722656 8.01761719 13.00722656 8.01761719 14.25 9 C15.07757813 9.64195312 15.90515625 10.28390625 16.7578125 10.9453125 C22.86577662 15.73155323 22.86577662 15.73155323 24 18 C8.16 18.33 -7.68 18.66 -24 19 C-19.19291687 14.19291687 -13.93460695 10.23737545 -8.52099609 6.16259766 C-7.24977949 5.19092294 -6.00596582 4.1835341 -4.76953125 3.16796875 C-3 1.75 -3 1.75 0 0 Z " fill="#1E5DB2" transform="translate(229,181)"/>
<path d="M0 0 C12.21 0 24.42 0 37 0 C31.375 4.5 31.375 4.5 28 6 C28.66 6.66 29.32 7.32 30 8 C22.31395526 8.97159933 14.74136601 9.10920422 7 9 C7 7.68 7 6.36 7 5 C3.535 3.02 3.535 3.02 0 1 C0 0.67 0 0.34 0 0 Z " fill="#7A94B8" transform="translate(315,193)"/>
<path d="M0 0 C10.23 0 20.46 0 31 0 C21.6097561 7.51219512 21.6097561 7.51219512 14.1875 6.6875 C13.02605469 6.56761719 11.86460937 6.44773438 10.66796875 6.32421875 C9.34732422 6.16373047 9.34732422 6.16373047 8 6 C8 6.33 8 6.66 8 7 C-7.51 7 -23.02 7 -39 7 C-39 6.67 -39 6.34 -39 6 C-24.48 5.67 -9.96 5.34 5 5 C2.525 2.525 2.525 2.525 0 0 Z " fill="#7594BD" transform="translate(247,193)"/>
<path d="M0 0 C12.87 0 25.74 0 39 0 C39 0.66 39 1.32 39 2 C31.40076723 3.45342557 23.79813005 4.638167 16.125 5.625 C15.11953125 5.7590625 14.1140625 5.893125 13.078125 6.03125 C12.10617187 6.15757812 11.13421875 6.28390625 10.1328125 6.4140625 C9.26543457 6.5270166 8.39805664 6.6399707 7.50439453 6.75634766 C4.98584777 7.00137687 2.52870676 7.04249451 0 7 C0 4.69 0 2.38 0 0 Z " fill="#6C8BB4" transform="translate(0,193)"/>
<path d="M0 0 C0.042721 1.66611905 0.04063832 3.33382885 0 5 C-1 6 -1 6 -2.79066467 6.12025452 C-3.57009933 6.11803391 -4.349534 6.11581329 -5.15258789 6.11352539 C-6.03342545 6.11344986 -6.914263 6.11337433 -7.8217926 6.11329651 C-8.77907761 6.10813522 -9.73636261 6.10297394 -10.72265625 6.09765625 C-11.69786728 6.0962413 -12.67307831 6.09482635 -13.67784119 6.09336853 C-16.80609143 6.08775133 -19.93427123 6.07519593 -23.0625 6.0625 C-25.17773334 6.05748722 -27.29296781 6.05292393 -29.40820312 6.04882812 C-34.60549296 6.03777631 -39.80274145 6.02102146 -45 6 C-45 5.67 -45 5.34 -45 5 C-40.36085744 4.2773562 -35.72019136 3.56577513 -31.07788086 2.86376953 C-29.50353914 2.6241853 -27.92962916 2.38174389 -26.35620117 2.13623047 C-17.52684064 0.76059083 -8.96960518 -0.44179202 0 0 Z " fill="#F6E7E9" transform="translate(400,232)"/>
<path d="M0 0 C12.87 0 25.74 0 39 0 C39 0.33 39 0.66 39 1 C45.93 1.495 45.93 1.495 53 2 C53 2.33 53 2.66 53 3 C29.24 3 5.48 3 -19 3 C-19 2.67 -19 2.34 -19 2 C-12.73 1.67 -6.46 1.34 0 1 C0 0.67 0 0.34 0 0 Z " fill="#B44557" transform="translate(152,256)"/>
<path d="M0 0 C0 0.33 0 0.66 0 1 C5.445 1.495 5.445 1.495 11 2 C11 2.33 11 2.66 11 3 C10.00782471 3.05534912 9.01564941 3.11069824 7.9934082 3.16772461 C4.24902745 3.37697169 0.5047498 3.58801878 -3.23950195 3.79956055 C-4.84819908 3.89020719 -6.4569224 3.9803905 -8.06567383 4.07006836 C-17.72044975 4.60861772 -27.36229723 5.20532536 -37 6 C-37 5.01 -37 4.02 -37 3 C-24.69401202 0.82959459 -12.49253625 -0.08319114 0 0 Z " fill="#A84961" transform="translate(437,228)"/>
<path d="M0 0 C3.63 0 7.26 0 11 0 C11 3.63 11 7.26 11 11 C7.37 11 3.74 11 0 11 C0 7.37 0 3.74 0 0 Z " fill="#3972BE" transform="translate(356,215)"/>
<path d="M0 0 C3.63 0 7.26 0 11 0 C11 3.63 11 7.26 11 11 C7.37 11 3.74 11 0 11 C0 7.37 0 3.74 0 0 Z " fill="#5384C5" transform="translate(281,212)"/>
<path d="M0 0 C3.3 0 6.6 0 10 0 C10 3.3 10 6.6 10 10 C6.7 10 3.4 10 0 10 C0 6.7 0 3.4 0 0 Z " fill="#306CBC" transform="translate(373,216)"/>
<path d="M0 0 C3.3 0 6.6 0 10 0 C10 2.97 10 5.94 10 9 C6.7 9 3.4 9 0 9 C0 6.03 0 3.06 0 0 Z " fill="#3B73BE" transform="translate(297,213)"/>
<path d="M0 0 C0 0.33 0 0.66 0 1 C-3.97722742 1.67858764 -7.95703804 2.34067334 -11.9375 3 C-13.05447266 3.19078125 -14.17144531 3.3815625 -15.32226562 3.578125 C-21.64366457 4.6162433 -27.59477372 5.21735657 -34 5 C-32 2 -32 2 -29.62890625 1.26953125 C-19.72692675 -0.20630518 -9.99196637 -0.18992122 0 0 Z " fill="#C44D59" transform="translate(366,238)"/>
<path d="M0 0 C2.97 0 5.94 0 9 0 C9 2.97 9 5.94 9 9 C6.03 9 3.06 9 0 9 C0 6.03 0 3.06 0 0 Z " fill="#3971BD" transform="translate(231,210)"/>
<path d="M0 0 C2.97 0 5.94 0 9 0 C9 2.97 9 5.94 9 9 C6.03 9 3.06 9 0 9 C0 6.03 0 3.06 0 0 Z " fill="#3D74BE" transform="translate(216,210)"/>
<path d="M0 0 C0.33 0.99 0.66 1.98 1 3 C-1.70784994 3.33772739 -4.41616996 3.67030687 -7.125 4 C-7.88554687 4.09539062 -8.64609375 4.19078125 -9.4296875 4.2890625 C-13.64909952 4.79830188 -17.74004344 5.10888068 -22 5 C-22 4.34 -22 3.68 -22 3 C-24.97 3 -27.94 3 -31 3 C-31 2.67 -31 2.34 -31 2 C-26.95865433 1.6626979 -22.91687763 1.33086166 -18.875 1 C-17.73289063 0.90460938 -16.59078125 0.80921875 -15.4140625 0.7109375 C-13.75117188 0.57558594 -13.75117188 0.57558594 -12.0546875 0.4375 C-11.03874512 0.35371094 -10.02280273 0.26992187 -8.97607422 0.18359375 C-5.9758761 -0.0014882 -3.00507853 -0.03134371 0 0 Z " fill="#B64557" transform="translate(262,251)"/>
<path d="M0 0 C9.41213252 -0.12873737 18.62087413 0.20177652 28 1 C28 1.33 28 1.66 28 2 C25.36 2.33 22.72 2.66 20 3 C20 3.33 20 3.66 20 4 C13.2314676 4.10152799 6.69675136 4.03026944 0 3 C0 2.01 0 1.02 0 0 Z " fill="#AF485D" transform="translate(483,227)"/>
<path d="M0 0 C0.33 0.99 0.66 1.98 1 3 C0 4 0 4 -2.50024414 4.11352539 C-3.58426514 4.10828857 -4.66828613 4.10305176 -5.78515625 4.09765625 C-6.95498047 4.09443359 -8.12480469 4.09121094 -9.33007812 4.08789062 C-11.17762695 4.07532227 -11.17762695 4.07532227 -13.0625 4.0625 C-14.91584961 4.05573242 -14.91584961 4.05573242 -16.80664062 4.04882812 C-19.87114117 4.03699608 -22.93554721 4.02051173 -26 4 C-26 3.67 -26 3.34 -26 3 C-17.42 2.01 -8.84 1.02 0 0 Z " fill="#E5ECF6" transform="translate(399,234)"/>
<path d="M0 0 C0 0.66 0 1.32 0 2 C-2.56204544 2.33719047 -5.12454318 2.66987153 -7.6875 3 C-8.40873047 3.09539062 -9.12996094 3.19078125 -9.87304688 3.2890625 C-13.60992871 3.76683735 -17.22291531 4.11919794 -21 4 C-21 3.01 -21 2.02 -21 1 C-14.03220597 -0.32719886 -7.07011089 -0.08825381 0 0 Z " fill="#C9424B" transform="translate(421,230)"/>
<path d="M0 0 C2.10409639 -0.02701408 4.20829178 -0.04640223 6.3125 -0.0625 C7.48425781 -0.07410156 8.65601563 -0.08570313 9.86328125 -0.09765625 C13 0 13 0 16 1 C16 1.66 16 2.32 16 3 C10.55306686 3.09688221 5.36095333 3.12862175 0 2 C0 1.34 0 0.68 0 0 Z " fill="#C8414B" transform="translate(524,231)"/>
<path d="M0 0 C4.62 0 9.24 0 14 0 C14 0.33 14 0.66 14 1 C12.35 1 10.7 1 9 1 C9 1.66 9 2.32 9 3 C6.03 2.67 3.06 2.34 0 2 C0 1.34 0 0.68 0 0 Z " fill="#B64355" transform="translate(89,253)"/>
<path d="M0 0 C2.97 0.33 5.94 0.66 9 1 C8.01 1.495 8.01 1.495 7 2 C7 2.66 7 3.32 7 4 C3.7 3.67 0.4 3.34 -3 3 C-2.01 2.67 -1.02 2.34 0 2 C0 1.34 0 0.68 0 0 Z " fill="#B34355" transform="translate(44,246)"/>
<path d="M0 0 C0 0.66 0 1.32 0 2 C-2.64 2.33 -5.28 2.66 -8 3 C-8 2.34 -8 1.68 -8 1 C-9.32 0.67 -10.64 0.34 -12 0 C-3.42857143 -1.28571429 -3.42857143 -1.28571429 0 0 Z " fill="#BA4454" transform="translate(333,242)"/>
<path d="M0 0 C2.64 0.33 5.28 0.66 8 1 C8 1.99 8 2.98 8 4 C5.36 3.67 2.72 3.34 0 3 C0 2.01 0 1.02 0 0 Z " fill="#B54153" transform="translate(0,238)"/>
<path d="M0 0 C3.63 0 7.26 0 11 0 C10.67 0.99 10.34 1.98 10 3 C6.7 2.67 3.4 2.34 0 2 C0 1.34 0 0.68 0 0 Z " fill="#CA3E47" transform="translate(79,252)"/>
<path d="M0 0 C-0.33 0.99 -0.66 1.98 -1 3 C-4.3 2.67 -7.6 2.34 -11 2 C-6.78370866 -0.10814567 -4.60209225 -0.17700355 0 0 Z " fill="#B64D5F" transform="translate(680,256)"/>
<path d="M0 0 C2.64 0 5.28 0 8 0 C7.01 0.495 7.01 0.495 6 1 C6 1.66 6 2.32 6 3 C4.35 3 2.7 3 1 3 C0.67 2.01 0.34 1.02 0 0 Z " fill="#BD4655" transform="translate(587,240)"/>
</svg>
